<svg width="37" height="48" viewBox="0 0 37 48" fill="none" xmlns="http://www.w3.org/2000/svg">
<g clip-path="url(#clip0_6_635)">
<path d="M34 20.0073C33 21.0073 35.3729 17.2023 29 16.0073C22.6271 14.8124 26 28.0073 26 17.0073C25.2265 20.5073 26.7524 15.4953 25.7005 19.9848C25.7726 18.9509 25.8633 17.6534 25.8633 17.6534C25.8639 17.6449 25.8642 17.6365 25.8642 17.628V17.5963C25.8642 16.5801 25.5247 15.7038 24.8826 15.0625C23.8175 13.9987 22.3181 13.968 22.1505 13.968H22.1363C22.1256 13.9681 22.1113 13.9686 22.1113 13.9686C20.8324 14.0085 19.991 14.4561 19.4484 14.9484C19.2615 14.4778 19.0039 14.0591 18.6698 13.7055C17.9589 12.9531 16.9952 12.5509 15.8055 12.5105C15.5818 12.4961 14.3602 12.4681 13.3372 13.3927C12.5654 14.0902 12.153 15.0983 12.1089 16.3876L12.1078 16.3918C12.1078 16.3918 12.0217 17.974 11.9392 19.4922C10.3082 13.4084 7.75792 4.61581 7.63627 4.19627C7.0548 2.19483 6.13996 0.888825 4.91747 0.314143C3.87769 -0.174448 2.9784 0.0362934 2.62468 0.156461C1.72225 0.355843 1.00687 0.848022 0.55558 1.58338C0.186889 2.18391 0 2.92883 0 3.79751C0 4.72432 0.217713 5.49853 0.261405 5.64426C0.262453 5.64755 0.267091 5.66264 0.267091 5.66264C2.63351 13.1 4.80884 21.7941 5.25594 23.6056C5.24681 23.7172 4.91628 27.7884 4.90266 27.959C4.8048 28.1087 2.09364 32.2582 2.09364 32.2582C2.05458 32.318 2.03438 32.3875 2.03438 32.4576C2.03438 32.4944 2.03992 32.5314 2.05114 32.5672L6.52167 46.7511C6.56955 46.9033 6.7105 47.0065 6.87001 47.0065H27.7735C27.9331 47.0065 28.0744 46.903 28.1219 46.7505L31.6082 35.6074C31.6187 35.5742 31.6241 35.5397 31.6248 35.5048L31.6271 35.3738C31.6793 32.3983 32.3888 28.3679 32.4188 28.1979C32.4195 28.1939 32.4222 28.1773 32.4222 28.1773C33.2853 22.7965 32.7018 24.4136 33.5253 21.0073C33.5261 21.004 34 20.0073 34 20.0073C34 20.5481 31.1451 27.492 34 20.0073C35 19.0073 33.5253 19.0073 34 20.0073Z" fill="white"/>
<path d="M6.32216 26.2723L7.78346 23.9007L11.7583 23.9432C10.6372 19.126 6.40805 4.55348 6.40805 4.55348C5.20801 0.423692 2.99422 1.38159 2.99422 1.38159C0.457377 1.84343 1.48609 5.27986 1.48609 5.27986C3.90667 12.8869 6.07976 21.6026 6.54691 23.5038L6.32216 26.2733V26.2723ZM33.5146 4.21764C29.5 7.73986 30.5076 6.83756 30.5076 6.83756C28.222 13.8068 25.2348 27.8714 25.2221 27.9491C24.302 33.5686 20.9333 33.1632 20.9333 33.1632C19.0662 33.2442 17.9301 31.7037 17.9301 31.7037L17.4429 32.1902C21.0144 34.6224 20.9879 39.4817 20.933 39.8116C20.8519 40.2981 20.294 40.2879 20.294 40.2879C19.7258 40.2068 19.6345 39.8116 19.6345 39.8116C18.9854 30.3254 10.3812 31.5414 10.3812 31.5414C9.33618 31.0754 10.1378 30.2442 10.1378 30.2442C13.7904 29.5957 16.4689 31.2172 16.4689 31.2172C21.9885 26.758 16.956 24.8932 16.956 24.8932H8.43241L3.39987 32.5957L7.53956 45.7303H27.1023L30.349 35.3522C30.4044 32.1956 31.1606 27.974 31.1606 27.974C32.1721 21.666 35.4439 8.47671 35.6088 7.73986C35.7734 6.99838 35.6088 6.83756 33.514 4.21465L33.5146 4.21764ZM18.6607 30.7307C19.6347 32.2714 21.0146 31.947 21.0146 31.947C23.6931 31.7847 23.8553 28.0553 23.8553 28.0553L24.586 17.5961C24.586 15.2448 22.1507 15.2448 22.1507 15.2448C19.5533 15.326 19.5536 17.515 19.5536 17.515L19.0665 24.812C22.0726 27.6503 18.664 30.7307 18.664 30.7307H18.6607ZM18.4976 16.623C18.4976 16.623 18.5789 13.8663 15.7378 13.7853C15.7378 13.7853 13.4652 13.6231 13.384 16.461L12.9782 23.92L17.8891 23.8998L18.4966 16.6225L18.4976 16.623Z" fill="#202020"/>
<path d="M26.1574 18.7265L26.6962 18.3931C29.1387 16.8819 32.3438 18.211 33 21.0073V21.0073" stroke="white" stroke-linecap="round"/>
<path d="M25.5 16.0073L26.7228 15.7927L28.3881 15.2651L28.7661 17.2652V17.2652C27.8676 17.2651 26.9892 17.5311 26.2416 18.0295L25.8881 18.2651V17.7651V17.6166C25.8881 17.057 25.7551 16.5054 25.5 16.0073V16.0073Z" fill="#202020"/>
<path d="M33.4011 17.6355L35.9011 19.6355V21.6355L32.0001 25.5073L32.6435 24.4689C33.8991 22.442 33.5915 19.817 31.9011 18.1355V18.1355L33.4011 17.6355Z" fill="#202020"/>
<path d="M33.4942 21.0834C33.5152 20.947 33.4216 20.8193 33.2851 20.7983C33.1486 20.7773 33.021 20.8709 33 21.0074L33.4942 21.0834ZM33 21.0074L31 34.0074L31.4942 34.0834L33.4942 21.0834L33 21.0074Z" fill="white"/>
<path d="M14.2583 -2.1228L20.7095 -1.49274L17.9968 21.5859L13.5406 15.5822L14.2583 -2.1228Z" fill="#202020"/>
<path d="M24.5001 28.5073V28.5073C23.8066 32.7212 29.8331 34.2611 31.2462 30.2311L31.5 29.5074" stroke="white"/>
<path d="M11.9998 21L13.8697 2.76951C13.9534 1.95444 14.3469 1.20263 14.9689 0.669409V0.669409C17.1544 -1.20384 20.5082 0.540955 20.2288 3.4058L19.0002 16" stroke="white"/>
</g>
<defs>
<clipPath id="clip0_6_635">
<rect width="37" height="47" fill="white" transform="translate(0 0.00732422)"/>
</clipPath>
</defs>
</svg>
