<svg width="37" height="47" viewBox="0 0 37 47" fill="none" xmlns="http://www.w3.org/2000/svg">
<g clip-path="url(#clip0_47_755)">
<path d="M34 20C33 21 35.3729 17.195 29 16C22.6271 14.805 26 28 26 17C25.2265 20.5 26.7524 15.488 25.7005 19.9775C25.7726 18.9435 25.8633 17.6461 25.8633 17.6461C25.8639 17.6375 25.8642 17.6292 25.8642 17.6207V17.589C25.8642 16.5728 25.5247 15.6965 24.8826 15.0551C23.8175 13.9914 22.3181 13.9606 22.1505 13.9606H22.1363C22.1256 13.9608 22.1113 13.9612 22.1113 13.9612C20.8324 14.0011 19.991 14.4488 19.4484 14.9411C19.2615 14.4704 19.0039 14.0518 18.6698 13.6982C17.9589 12.9458 16.9952 12.5436 15.8055 12.5032C15.5818 12.4887 14.3602 12.4608 13.3372 13.3853C12.5654 14.0829 12.153 15.091 12.1089 16.3803L12.1078 16.3845C12.1078 16.3845 12.0217 17.9667 11.9392 19.4849C10.3082 13.401 7.75792 4.60849 7.63627 4.18895C7.0548 2.1875 6.13996 0.881501 4.91747 0.306819C3.87769 -0.181772 2.9784 0.0289692 2.62468 0.149137C1.72225 0.348519 1.00687 0.840698 0.55558 1.57605C0.186889 2.17659 0 2.92151 0 3.79018C0 4.717 0.217713 5.49121 0.261405 5.63694C0.262453 5.64022 0.267091 5.65532 0.267091 5.65532C2.63351 13.0927 4.80884 21.7868 5.25594 23.5982C5.24681 23.7099 4.91628 27.7811 4.90266 27.9516C4.8048 28.1014 2.09364 32.2509 2.09364 32.2509C2.05458 32.3107 2.03438 32.3802 2.03438 32.4503C2.03438 32.4871 2.03992 32.5241 2.05114 32.5598L6.52167 46.7438C6.56955 46.8959 6.7105 46.9992 6.87001 46.9992H27.7735C27.9331 46.9992 28.0744 46.8956 28.1219 46.7432L31.6082 35.6C31.6187 35.5669 31.6241 35.5323 31.6248 35.4975L31.6271 35.3664C31.6793 32.3909 32.3888 28.3606 32.4188 28.1906C32.4195 28.1866 32.4222 28.17 32.4222 28.17C33.2853 22.7892 32.7018 24.4062 33.5253 21C33.5261 20.9967 34 20 34 20C34 20.5408 31.1451 27.4847 34 20C35 19 33.5253 19 34 20Z" fill="#202020"/>
<path d="M6.32216 26.2649L7.78346 23.8934L11.7583 23.9359C10.6372 19.1187 6.40805 4.54615 6.40805 4.54615C5.20801 0.416367 2.99422 1.37427 2.99422 1.37427C0.457377 1.83611 1.48609 5.27254 1.48609 5.27254C3.90667 12.8796 6.07976 21.5953 6.54691 23.4965L6.32216 26.266V26.2649ZM33.5146 4.21031C29.5 7.73254 30.5076 6.83023 30.5076 6.83023C28.222 13.7995 25.2348 27.864 25.2221 27.9418C24.302 33.5612 20.9333 33.1559 20.9333 33.1559C19.0662 33.2369 17.9301 31.6964 17.9301 31.6964L17.4429 32.1829C21.0144 34.6151 20.9879 39.4744 20.933 39.8043C20.8519 40.2908 20.294 40.2806 20.294 40.2806C19.7258 40.1994 19.6345 39.8043 19.6345 39.8043C18.9854 30.3181 10.3812 31.5341 10.3812 31.5341C9.33618 31.0681 10.1378 30.2369 10.1378 30.2369C13.7904 29.5884 16.4689 31.2099 16.4689 31.2099C21.9885 26.7507 16.956 24.8859 16.956 24.8859H8.43241L3.39987 32.5884L7.53956 45.723H27.1023L30.349 35.3449C30.4044 32.1883 31.1606 27.9667 31.1606 27.9667C32.1721 21.6587 35.4439 8.46938 35.6088 7.73254C35.7734 6.99106 35.6088 6.83023 33.514 4.20732L33.5146 4.21031ZM18.6607 30.7234C19.6347 32.264 21.0146 31.9397 21.0146 31.9397C23.6931 31.7774 23.8553 28.048 23.8553 28.048L24.586 17.5888C24.586 15.2375 22.1507 15.2375 22.1507 15.2375C19.5533 15.3186 19.5536 17.5077 19.5536 17.5077L19.0665 24.8047C22.0726 27.643 18.664 30.7234 18.664 30.7234H18.6607ZM18.4976 16.6157C18.4976 16.6157 18.5789 13.859 15.7378 13.778C15.7378 13.778 13.4652 13.6158 13.384 16.4536L12.9782 23.9127L17.8891 23.8925L18.4966 16.6152L18.4976 16.6157Z" fill="white"/>
<path d="M26.1574 18.7191L26.6962 18.3858C29.1387 16.8746 32.3438 18.2037 33 21V21" stroke="#202020" stroke-linecap="round"/>
<path d="M25.5 16L26.7228 15.7854L28.3881 15.2578L28.7661 17.2578V17.2578C27.8676 17.2578 26.9892 17.5238 26.2416 18.0222L25.8881 18.2578V17.7578V17.6092C25.8881 17.0496 25.7551 16.4981 25.5 16V16Z" fill="white"/>
<path d="M33.4009 17.6282L35.9009 19.6282V21.6282L31.9999 25.5L32.6432 24.4616C33.8989 22.4347 33.5912 19.8097 31.9009 18.1282V18.1282L33.4009 17.6282Z" fill="white"/>
<path d="M33.4942 21.076C33.5152 20.9395 33.4216 20.8119 33.2851 20.7909C33.1486 20.7699 33.021 20.8635 33 20.9999L33.4942 21.076ZM33 20.9999L31 33.9999L31.4942 34.076L33.4942 21.076L33 20.9999Z" fill="#202020"/>
<path d="M13.5 6.5L19.4998 6.5L17.9967 21.5785L13.4998 15.9928L13.5 6.5Z" fill="white"/>
<path d="M24.5003 28.5V28.5C23.8069 32.7138 29.8333 34.2538 31.2464 30.2238L31.5002 29.5001" stroke="#202020"/>
<path d="M13.0003 15.9928L13.0003 11.3422C13.0004 9.96562 13.9372 8.7657 15.2727 8.43185V8.43185C17.1661 7.95852 19.0002 9.39058 19.0002 11.3423L19.0001 15.9928" stroke="black"/>
</g>
<defs>
<clipPath id="clip0_47_755">
<rect width="37" height="47" fill="white"/>
</clipPath>
</defs>
</svg>
