<svg width="37" height="48" viewBox="0 0 37 48" fill="none" xmlns="http://www.w3.org/2000/svg">
<g clip-path="url(#clip0_6_635)">
<path d="M34 20.0072C33 21.0072 35.3729 17.2022 29 16.0072C22.6271 14.8123 26 28.0072 26 17.0072C25.2265 20.5072 26.7524 15.4952 25.7005 19.9847C25.7726 18.9507 25.8633 17.6533 25.8633 17.6533C25.8639 17.6447 25.8642 17.6364 25.8642 17.6279V17.5962C25.8642 16.58 25.5247 15.7037 24.8826 15.0623C23.8175 13.9986 22.3181 13.9678 22.1505 13.9678H22.1363C22.1256 13.968 22.1113 13.9684 22.1113 13.9684C20.8324 14.0083 19.991 14.456 19.4484 14.9483C19.2615 14.4776 19.0039 14.059 18.6698 13.7054C17.9589 12.953 16.9952 12.5508 15.8055 12.5104C15.5818 12.4959 14.3602 12.468 13.3372 13.3926C12.5654 14.0901 12.153 15.0982 12.1089 16.3875L12.1078 16.3917C12.1078 16.3917 12.0217 17.9739 11.9392 19.4921C10.3082 13.4082 7.75792 4.61569 7.63627 4.19615C7.0548 2.1947 6.13996 0.888703 4.91747 0.314021C3.87769 -0.17457 2.9784 0.0361713 2.62468 0.156339C1.72225 0.355721 1.00687 0.8479 0.55558 1.58325C0.186889 2.18379 0 2.92871 0 3.79738C0 4.7242 0.217713 5.49841 0.261405 5.64414C0.262453 5.64743 0.267091 5.66252 0.267091 5.66252C2.63351 13.0999 4.80884 21.794 5.25594 23.6054C5.24681 23.7171 4.91628 27.7883 4.90266 27.9588C4.8048 28.1086 2.09364 32.2581 2.09364 32.2581C2.05458 32.3179 2.03438 32.3874 2.03438 32.4575C2.03438 32.4943 2.03992 32.5313 2.05114 32.567L6.52167 46.751C6.56955 46.9031 6.7105 47.0064 6.87001 47.0064H27.7735C27.9331 47.0064 28.0744 46.9028 28.1219 46.7504L31.6082 35.6073C31.6187 35.5741 31.6241 35.5395 31.6248 35.5047L31.6271 35.3736C31.6793 32.3982 32.3888 28.3678 32.4188 28.1978C32.4195 28.1938 32.4222 28.1772 32.4222 28.1772C33.2853 22.7964 32.7018 24.4134 33.5253 21.0072C33.5261 21.0039 34 20.0072 34 20.0072C34 20.548 31.1451 27.4919 34 20.0072C35 19.0072 33.5253 19.0072 34 20.0072Z" fill="#202020"/>
<path d="M6.32216 26.2721L7.78346 23.9006L11.7583 23.9431C10.6372 19.1259 6.40805 4.55336 6.40805 4.55336C5.20801 0.423569 2.99422 1.38147 2.99422 1.38147C0.457377 1.84331 1.48609 5.27974 1.48609 5.27974C3.90667 12.8868 6.07976 21.6025 6.54691 23.5037L6.32216 26.2732V26.2721ZM33.5146 4.21752C29.5 7.73974 30.5076 6.83744 30.5076 6.83744C28.222 13.8067 25.2348 27.8712 25.2221 27.949C24.302 33.5684 20.9333 33.1631 20.9333 33.1631C19.0662 33.2441 17.9301 31.7036 17.9301 31.7036L17.4429 32.1901C21.0144 34.6223 20.9879 39.4816 20.933 39.8115C20.8519 40.298 20.294 40.2878 20.294 40.2878C19.7258 40.2066 19.6345 39.8115 19.6345 39.8115C18.9854 30.3253 10.3812 31.5413 10.3812 31.5413C9.33618 31.0753 10.1378 30.2441 10.1378 30.2441C13.7904 29.5956 16.4689 31.2171 16.4689 31.2171C21.9885 26.7579 16.956 24.8931 16.956 24.8931H8.43241L3.39987 32.5956L7.53956 45.7302H27.1023L30.349 35.3521C30.4044 32.1955 31.1606 27.9739 31.1606 27.9739C32.1721 21.6659 35.4439 8.47659 35.6088 7.73974C35.7734 6.99826 35.6088 6.83744 33.514 4.21453L33.5146 4.21752ZM18.6607 30.7306C19.6347 32.2712 21.0146 31.9469 21.0146 31.9469C23.6931 31.7846 23.8553 28.0552 23.8553 28.0552L24.586 17.596C24.586 15.2447 22.1507 15.2447 22.1507 15.2447C19.5533 15.3258 19.5536 17.5149 19.5536 17.5149L19.0665 24.8119C22.0726 27.6502 18.664 30.7306 18.664 30.7306H18.6607ZM18.4976 16.6229C18.4976 16.6229 18.5789 13.8662 15.7378 13.7852C15.7378 13.7852 13.4652 13.623 13.384 16.4609L12.9782 23.9199L17.8891 23.8997L18.4966 16.6224L18.4976 16.6229Z" fill="white"/>
<path d="M26.1574 18.7263L26.6962 18.393C29.1387 16.8818 32.3438 18.2109 33 21.0072V21.0072" stroke="#202020" stroke-linecap="round"/>
<path d="M25.5 16.0072L26.7228 15.7926L28.3881 15.265L28.7661 17.265V17.265C27.8676 17.265 26.9892 17.531 26.2416 18.0294L25.8881 18.265V17.765V17.6164C25.8881 17.0568 25.7551 16.5053 25.5 16.0072V16.0072Z" fill="white"/>
<path d="M33.4009 17.6354L35.9009 19.6354V21.6354L31.9999 25.5072L32.6432 24.4688C33.8989 22.4419 33.5912 19.8169 31.9009 18.1354V18.1354L33.4009 17.6354Z" fill="white"/>
<path d="M33.4942 21.0832C33.5152 20.9467 33.4216 20.8191 33.2851 20.7981C33.1486 20.7771 33.021 20.8707 33 21.0072L33.4942 21.0832ZM33 21.0072L31 34.0072L31.4942 34.0832L33.4942 21.0832L33 21.0072Z" fill="#202020"/>
<path d="M14.0874 -0.37085L20.5386 0.259218L17.997 21.5857L13.5 16L14.0874 -0.37085Z" fill="white"/>
<path d="M24.5003 28.5072V28.5072C23.8069 32.721 29.8333 34.261 31.2464 30.231L31.5002 29.5073" stroke="#202020"/>
<path d="M13.0003 16L13.8969 2.99646C13.9612 2.06419 14.4966 1.22913 15.317 0.781649V0.781649C17.1715 -0.229898 19.4243 1.1513 19.364 3.26287L19.0003 16" stroke="black"/>
</g>
<defs>
<clipPath id="clip0_6_635">
<rect width="37" height="47" fill="white" transform="translate(0 0.00720215)"/>
</clipPath>
</defs>
</svg>
